<?xml version="1.0" standalone="no"?><!DOCTYPE svg PUBLIC "-//W3C//DTD SVG 1.1//EN" "http://www.w3.org/Graphics/SVG/1.1/DTD/svg11.dtd"><svg t="1722244123410" class="icon" viewBox="0 0 1024 1024" version="1.1" xmlns="http://www.w3.org/2000/svg" p-id="2740" id="mx_n_1722244123411" xmlns:xlink="http://www.w3.org/1999/xlink" width="120" height="120"><path d="M357.376 655.36c6.144 0 11.264 5.12 11.264 11.264V942.08c0 6.144-5.12 11.264-11.264 11.264H82.944C76.8 952.32 71.68 947.2 71.68 941.056V666.624c0-6.144 5.12-11.264 11.264-11.264h274.432m0-61.44H82.944C43.008 593.92 10.24 626.688 10.24 666.624V942.08c0 38.912 32.768 71.68 72.704 71.68H358.4c39.936 0 72.704-32.768 72.704-72.704V666.624c-1.024-39.936-33.792-72.704-73.728-72.704zM941.056 645.12c11.264 0 21.504 9.216 21.504 21.504V942.08c0 11.264-9.216 21.504-21.504 21.504H666.624c-11.264 0-21.504-9.216-21.504-21.504V666.624c0-11.264 9.216-21.504 21.504-21.504h274.432m0-51.2H666.624c-39.936 0-72.704 32.768-72.704 72.704V942.08c0 39.936 32.768 72.704 72.704 72.704H942.08c39.936 0 72.704-32.768 72.704-72.704V666.624c-1.024-39.936-33.792-72.704-73.728-72.704zM357.376 92.16c6.144 0 11.264 5.12 11.264 11.264V378.88c0 6.144-5.12 11.264-11.264 11.264H82.944C76.8 389.12 71.68 384 71.68 377.856V103.424C71.68 97.28 76.8 92.16 82.944 92.16h274.432m0-61.44H82.944C43.008 30.72 10.24 63.488 10.24 103.424V378.88c0 38.912 32.768 71.68 72.704 71.68H358.4c39.936 0 72.704-32.768 72.704-72.704V103.424C430.08 63.488 397.312 30.72 357.376 30.72zM773.12 65.536c3.072 0 9.216 1.024 15.36 6.144l174.08 174.08c5.12 5.12 6.144 11.264 6.144 15.36s-1.024 9.216-6.144 15.36L788.48 450.56c-5.12 5.12-11.264 6.144-15.36 6.144s-9.216-1.024-15.36-6.144L583.68 276.48c-5.12-5.12-6.144-11.264-6.144-15.36s1.024-9.216 6.144-15.36L757.76 71.68c6.144-5.12 12.288-6.144 15.36-6.144m0-51.2c-18.432 0-36.864 7.168-51.2 21.504l-174.08 174.08c-27.648 27.648-27.648 73.728 0 102.4l174.08 174.08c14.336 14.336 32.768 21.504 51.2 21.504s36.864-7.168 51.2-21.504l174.08-174.08c27.648-27.648 27.648-73.728 0-102.4l-174.08-174.08c-14.336-14.336-32.768-21.504-51.2-21.504z" fill="#223dc4" p-id="2741"></path><path d="M898.048 284.672l-30.72-30.72c-3.072-3.072-3.072-8.192 0-11.264 3.072-3.072 8.192-3.072 11.264 0l30.72 30.72c3.072 3.072 3.072 8.192 0 11.264-3.072 3.072-8.192 3.072-11.264 0z" fill="#223dc4" p-id="2742"></path><path d="M903.168 302.08c-6.144 0-12.288-2.048-16.384-7.168l-30.72-30.72c-9.216-9.216-9.216-23.552 0-32.768 9.216-9.216 23.552-9.216 32.768 0l30.72 30.72c9.216 9.216 9.216 23.552 0 32.768-4.096 5.12-10.24 7.168-16.384 7.168z" fill="#223dc4" p-id="2743"></path><path d="M827.392 202.752l-70.656-70.656c-3.072-3.072-3.072-7.168 0-10.24 3.072-3.072 7.168-3.072 10.24 0l70.656 70.656c3.072 3.072 3.072 7.168 0 10.24-3.072 3.072-7.168 3.072-10.24 0z" fill="#223dc4" p-id="2744"></path><path d="M832.512 220.16c-6.144 0-11.264-2.048-16.384-6.144L746.496 143.36c-9.216-9.216-9.216-23.552 0-31.744 8.192-8.192 23.552-8.192 31.744 0l70.656 70.656c9.216 9.216 9.216 23.552 0 31.744-5.12 4.096-10.24 6.144-16.384 6.144z" fill="#223dc4" p-id="2745"></path></svg>